:SAMPLES-PER-SECOND 30
:FULLY-SPECIFIED
:DEGREES
266
root  -2.16844 40.9768 -0.664707 9.93343 -82.0719 -1.2693
RightUpLeg  -3.59002 -0.672197 -0.933412
RightLeg  -7.21944 -29.0509 4.63174
RightFoot  2.53159 -0.106133 1.01415
RightToes  -3.10096e-008 1.75238e-005 3.56266e-009
Spine  3.56972 -2.80024 -0.261967
Spine1  4.73858 -0.560291 -10.3342
HEad  -31.3482 -59.4552 22.4711
LeftShoulder1  2.31189 -4.1257 -24.0855
LeftArm  -34.4754 34.6428 -52.1899
LeftForeArm  20.0787 -70.989 -33.4515
LeftHand  0.271083 -4.92542 -2.75138
RightShoulder  -0.209682 -5.8059 0.697047
RightArm  -71.2106 18.6112 -8.07587
RightForeArm  -85.3257 12.0132 -10.3347
RightHand  -0.571544 2.34771 -8.77578
LeftUpLeg  -8.16194 -0.605693 3.07593
LeftLeg  -4.4829 6.22047 -0.554335
LeftFoot  4.86314 0.243419 -1.91712
LeftToes  4.7633e-008 1.48299e-008 1.30754e-009
267
root  -2.10523 40.9732 -0.736684 9.85527 -81.5667 -1.61726
RightUpLeg  -3.37287 -0.718792 -0.780887
RightLeg  -6.83311 -29.5192 4.56961
RightFoot  2.35409 -0.0945053 0.920589
RightToes  -3.10096e-008 1.75238e-005 3.56266e-009
Spine  3.8286 -3.0679 -2.41787
Spine1  6.46179 -1.2024 -8.21556
HEad  -30.9847 -60.7422 22.7281
LeftShoulder1  2.37006 -4.32825 -24.0438
LeftArm  -36.431 36.6595 -54.9107
LeftForeArm  17.7604 -70.3489 -32.3348
LeftHand  0.296019 -4.91561 -3.0325
RightShoulder  -0.213478 -5.77928 1.02935
RightArm  -71.7615 17.1905 -6.96281
RightForeArm  -86.3844 12.4034 -10.3656
RightHand  -0.619413 3.2083 -8.59118
LeftUpLeg  -8.01242 -0.493346 3.22206
LeftLeg  -4.22729 5.46005 -0.447159
LeftFoot  4.91973 0.272174 -2.11481
LeftToes  4.7633e-008 1.48299e-008 1.30754e-009
268
root  -2.06428 40.9686 -0.791626 10.4065 -81.5317 -2.42888
RightUpLeg  -3.21441 -0.604718 -0.569279
RightLeg  -6.75684 -29.6479 4.53426
RightFoot  2.32566 -0.0839373 0.832686
RightToes  -3.10096e-008 1.75238e-005 3.56266e-009
Spine  3.78924 -3.14205 -4.17494
Spine1  7.65719 -1.66596 -6.36789
HEad  -27.9581 -61.9976 20.0956
LeftShoulder1  2.53217 -4.86843 -24.0286
LeftArm  -36.6965 38.7812 -56.4127
LeftForeArm  17.1734 -70.1457 -31.9757
LeftHand  0.291647 -5.30266 -2.85397
RightShoulder  -0.167622 -5.2084 1.49575
RightArm  -69.6502 16.7554 -6.51008
RightForeArm  -86.602 11.6293 -10.669
RightHand  -0.623112 3.5027 -8.36747
LeftUpLeg  -7.95301 -0.250935 3.43413
LeftLeg  -3.96228 5.15876 -0.477388
LeftFoot  4.83464 0.268805 -2.09882
LeftToes  4.7633e-008 1.48299e-008 1.30754e-009
269
root  -2.03125 40.9699 -0.800432 10.6591 -82.0796 -2.75002
RightUpLeg  -3.29404 -0.591231 -0.563533
RightLeg  -6.65109 -29.1682 4.46402
RightFoot  2.39525 -0.0666649 0.689129
RightToes  -3.10096e-008 1.75238e-005 3.56266e-009
Spine  3.40824 -3.07664 -5.09962
Spine1  8.9467 -1.7506 -5.47397
HEad  -26.6267 -62.8275 18.5642
LeftShoulder1  2.51418 -4.79944 -24.0648
LeftArm  -34.4766 39.8283 -56.0823
LeftForeArm  17.9035 -70.356 -32.3276
LeftHand  0.227769 -5.20659 -2.18294
RightShoulder  -0.133103 -4.83427 1.70951
RightArm  -69.9953 17.0079 -5.76485
RightForeArm  -86.954 11.4539 -10.8955
RightHand  -0.53256 2.58406 -7.96485
LeftUpLeg  -7.85149 -0.179676 3.48283
LeftLeg  -3.9662 5.62742 -0.538955
LeftFoot  4.84307 0.265696 -2.0634
LeftToes  4.7633e-008 1.48299e-008 1.30754e-009
270
root  -2.02855 40.974 -0.790269 10.8862 -82.904 -3.0873
RightUpLeg  -3.1726 -0.538014 -0.571906
RightLeg  -6.82657 -28.4851 4.4487
RightFoot  2.52022 -0.0541125 0.586432
RightToes  -3.10096e-008 1.75238e-005 3.56266e-009
Spine  3.18797 -2.76498 -5.10568
Spine1  9.25764 -1.35556 -5.62826
HEad  -25.3468 -63.3105 17.272
LeftShoulder1  2.51695 -4.82982 -23.983
LeftArm  -31.8484 40.01 -54.9013
LeftForeArm  18.7273 -70.0592 -31.5031
LeftHand  0.217529 -4.98611 -2.13345
RightShoulder  -0.0969216 -4.43787 2.06276
RightArm  -69.0588 17.0156 -5.29652
RightForeArm  -87.3388 11.4603 -10.7541
RightHand  -0.575033 2.94687 -8.19353
LeftUpLeg  -7.53441 -0.107486 3.48938
LeftLeg  -4.12502 6.39108 -0.635484
LeftFoot  4.85363 0.259347 -1.96499
LeftToes  4.7633e-008 1.48299e-008 1.30754e-009
271
root  -2.02626 40.9731 -0.775941 10.816 -83.4482 -2.94009
RightUpLeg  -3.36664 -0.483208 -0.623506
RightLeg  -6.66795 -28.0074 4.24533
RightFoot  2.53065 -0.0569254 0.609767
RightToes  -3.10096e-008 1.75238e-005 3.56266e-009
Spine  2.84122 -2.4445 -4.68657
Spine1  9.25069 -0.890412 -6.04452
HEad  -25.2572 -62.7075 17.4728
LeftShoulder1  2.57148 -5.0334 -23.9004
LeftArm  -29.6622 39.48 -53.7283
LeftForeArm  19.6965 -69.7839 -30.7297
LeftHand  0.305802 -5.13402 -3.06516
RightShoulder  -0.0962188 -4.42763 2.11768
RightArm  -68.9248 17.2488 -4.87094
RightForeArm  -86.039 11.7728 -10.409
RightHand  -0.714095 3.53518 -9.53062
LeftUpLeg  -7.52958 -0.0859467 3.44992
LeftLeg  -4.13217 6.95318 -0.730826
LeftFoot  4.80589 0.260572 -1.97699
LeftToes  4.7633e-008 1.48299e-008 1.30754e-009
272
root  -2.03729 40.9722 -0.755861 10.3222 -83.8679 -2.64586
RightUpLeg  -3.29882 -0.527239 -0.700737
RightLeg  -6.33207 -27.5563 3.99264
RightFoot  2.42992 -0.0751017 0.759245
RightToes  -3.10096e-008 1.75238e-005 3.56266e-009
Spine  2.78225 -2.25799 -4.00458
Spine1  8.88674 -0.510576 -6.81258
HEad  -25.4376 -61.6503 17.5912
LeftShoulder1  2.56246 -5.15906 -23.3283
LeftArm  -27.9557 38.6398 -53.0431
LeftForeArm  19.5487 -69.6611 -30.4969
LeftHand  0.288566 -5.12497 -2.87948
RightShoulder  -0.0826776 -4.26855 2.55314
RightArm  -70.1915 17.7092 -4.83846
RightForeArm  -84.3887 12.6077 -9.8551
RightHand  -0.649115 3.38359 -8.82512
LeftUpLeg  -7.2828 -0.0334358 3.40799
LeftLeg  -3.97989 7.25278 -0.786464
LeftFoot  4.57387 0.266571 -2.0611
LeftToes  4.7633e-008 1.48299e-008 1.30754e-009
273
root  -2.07945 40.9675 -0.731223 9.34987 -84.0635 -2.08095
RightUpLeg  -2.95099 -0.576749 -0.759295
RightLeg  -5.95445 -27.319 3.68586
RightFoot  2.17803 -0.0946307 0.92331
RightToes  -3.10096e-008 1.75238e-005 3.56266e-009
Spine  2.60183 -2.11637 -3.82753
Spine1  8.743 -0.404772 -6.65669
HEad  -25.5349 -59.9147 17.1629
LeftShoulder1  2.63832 -5.30454 -23.7235
LeftArm  -26.2565 37.0939 -51.5281
LeftForeArm  18.9145 -69.5791 -30.4362
LeftHand  0.288109 -4.71026 -3.02065
RightShoulder  -0.0367544 -3.82833 2.8131
RightArm  -70.7488 17.9426 -5.14448
RightForeArm  -81.7677 13.8305 -8.56602
RightHand  -0.608395 3.4734 -8.21123
LeftUpLeg  -6.89657 -0.0375998 3.27363
LeftLeg  -3.63421 7.54585 -0.742787
LeftFoot  4.18293 0.265538 -2.03903
LeftToes  4.7633e-008 1.48299e-008 1.30754e-009
